<?xml version="1.0" standalone="no"?>
<!DOCTYPE svg PUBLIC "-//W3C//DTD SVG 20010904//EN"
 "http://www.w3.org/TR/2001/REC-SVG-20010904/DTD/svg10.dtd">
<svg version="1.0" xmlns="http://www.w3.org/2000/svg"
 width="560.000000pt" height="454.000000pt" viewBox="0 0 560.000000 454.000000"
 preserveAspectRatio="xMidYMid meet">
<metadata>
Created by potrace 1.16, written by Peter Selinger 2001-2019
</metadata>
<g transform="translate(0.000000,454.000000) scale(0.043011,-0.087140)"
fill="#000000" stroke="none">
<path d="M0 2605 c0 -2598 0 -2605 20 -2605 20 0 20 7 20 721 l0 721 34 34 34
34 937 0 937 0 34 -34 34 -34 0 -423 c0 -232 -2 -420 -4 -418 -17 16 -77 381
-90 543 -19 236 -15 229 -151 234 -51 2 -114 0 -138 -6 -43 -9 -44 -8 -55 22
-19 51 -70 106 -99 106 -23 0 -25 -3 -20 -32 3 -18 13 -54 23 -80 l18 -47 -47
-44 c-27 -24 -45 -37 -41 -28 7 18 23 91 19 91 -1 0 -23 -11 -47 -25 -25 -14
-60 -27 -79 -29 -18 -2 -41 -13 -51 -25 l-17 -22 -40 26 c-42 26 -67 33 -56
15 9 -15 -2 -12 -30 6 -24 16 -25 15 -25 -5 0 -14 -5 -19 -15 -15 -8 3 -28 1
-44 -4 -41 -15 -51 12 -10 28 25 11 29 18 29 52 0 47 -23 106 -45 114 -10 4
-25 -4 -41 -22 -27 -28 -28 -54 -8 -147 6 -25 4 -27 -26 -27 -24 0 -31 4 -26
15 9 24 -16 17 -72 -20 -84 -57 -125 -135 -143 -275 -9 -72 -3 -174 10 -166 3
2 7 -7 7 -21 1 -13 16 -37 33 -52 18 -16 34 -44 40 -67 5 -21 9 -31 10 -21 2
31 17 18 31 -26 9 -27 15 -36 18 -24 5 22 22 12 22 -13 0 -14 -12 -21 -49 -29
-26 -5 -84 -26 -129 -46 -44 -19 -85 -35 -91 -35 -13 0 -13 -7 -1 -35 9 -20 9
-20 15 2 5 13 28 31 67 48 89 40 116 21 54 -41 -26 -26 -42 -34 -70 -34 -25 0
-36 -4 -36 -15 0 -11 -11 -15 -40 -15 -22 0 -40 5 -40 11 0 41 -77 -106 -84
-160 -7 -51 -19 -86 -36 -106 -17 -20 -70 -130 -70 -146 0 -5 75 -9 166 -9
l166 0 -7 47 c-8 57 -10 60 -30 43 -21 -17 -19 3 3 31 l19 22 11 -33 c7 -18
12 -50 12 -71 l0 -39 113 0 c73 0 107 4 97 10 -19 12 -13 16 38 25 34 5 42 4
42 -8 0 -9 -8 -18 -18 -20 -9 -3 103 -5 251 -6 170 -1 267 3 267 9 0 16 101
78 164 100 33 11 81 20 107 20 69 0 206 46 241 80 l28 28 0 -119 0 -119 198 0
197 0 45 57 c130 165 191 248 219 298 35 61 52 75 137 109 32 13 100 43 149
67 93 45 99 47 150 51 29 2 85 -26 85 -42 0 -16 40 -21 74 -9 l34 12 -94 70
c-51 38 -95 76 -98 86 -3 9 -8 34 -12 56 l-7 40 22 -19 c11 -11 24 -16 28 -13
3 4 1 7 -5 7 -16 0 -15 42 1 65 17 22 37 12 37 -19 0 -38 79 -45 81 -7 3 47 9
75 16 80 4 3 9 21 10 39 1 18 7 40 12 50 8 12 10 -7 11 -70 l0 -87 34 23 c19
13 42 31 51 40 19 18 45 21 45 5 0 -6 -9 -22 -20 -36 -11 -14 -20 -34 -20 -43
0 -19 26 -34 41 -24 5 3 9 -1 10 -8 0 -7 5 -2 10 12 6 14 8 33 5 43 -3 11 0
17 7 14 7 -2 14 -14 16 -28 3 -23 4 -23 12 -4 7 14 8 8 4 -20 -10 -83 -27
-120 -77 -169 l-49 -50 21 -20 c17 -17 20 -18 14 -3 -5 14 4 13 62 -12 38 -16
107 -39 153 -52 75 -21 87 -28 113 -63 15 -21 28 -46 28 -54 0 -8 8 -29 19
-46 16 -26 106 -250 125 -308 5 -17 41 -18 567 -18 l561 0 -6 53 c-3 29 -12
66 -20 82 -9 17 -16 35 -16 41 0 11 128 25 253 27 37 1 67 2 67 3 0 13 -95
154 -104 154 -12 0 -30 106 -28 165 1 31 29 46 60 32 20 -9 26 -9 30 1 6 18
23 15 48 -9 20 -19 29 -20 69 -13 l45 9 -95 70 c-77 56 -97 77 -105 105 -15
53 -13 62 9 50 30 -16 36 -12 16 10 -10 11 -14 20 -9 20 6 0 10 10 11 21 1 12
4 23 7 26 10 10 26 -9 26 -30 0 -40 12 -48 53 -35 30 9 37 16 38 37 1 14 2 31
4 36 1 6 3 17 3 26 1 9 9 16 17 16 11 0 15 -11 15 -40 0 -38 1 -39 18 -24 10
10 23 17 29 17 5 0 20 11 33 25 22 24 60 34 60 17 0 -5 -9 -17 -20 -27 -30
-27 -26 -73 6 -86 32 -12 31 -12 43 37 l9 39 1 -33 c1 -19 5 -31 11 -27 17 10
11 -7 -7 -22 -17 -14 -17 -14 0 -9 15 5 17 2 11 -17 -18 -61 -36 -88 -92 -137
-50 -44 -61 -59 -65 -94 -3 -22 -9 -52 -13 -66 -6 -24 -6 -24 9 -5 9 11 17 36
17 56 0 31 29 91 30 62 0 -7 20 -46 45 -86 46 -76 57 -111 31 -101 -10 4 -15
-9 -21 -52 -4 -32 -11 -68 -16 -81 -11 -30 -1 -57 15 -43 7 5 39 9 72 9 32 0
79 4 104 10 86 19 104 -1 81 -89 -5 -19 -12 -56 -16 -82 l-6 -47 360 -1 361 0
0 714 c0 533 3 722 12 741 26 57 -12 55 988 55 1000 0 962 2 988 -55 9 -19 12
-208 12 -740 l0 -715 80 0 80 0 2 725 3 725 28 27 27 28 945 0 945 0 27 -28
28 -27 3 -725 2 -725 1150 0 1150 0 0 2605 0 2605 -6510 0 -6510 0 0 -2605z
m1065 2565 c4 -11 10 -18 14 -16 13 9 28 -9 36 -41 5 -24 3 -33 -6 -33 -7 0
-9 -3 -6 -7 12 -12 47 30 47 56 l0 26 450 -3 450 -2 0 -950 0 -950 -165 0
-165 0 0 43 c-1 23 -5 62 -10 87 -5 25 -17 117 -25 205 -9 88 -20 177 -26 197
-5 20 -16 98 -24 172 -13 129 -28 179 -57 203 -7 6 -35 18 -63 27 -258 82
-250 78 -253 114 -2 17 -5 32 -7 32 -2 0 -19 -9 -38 -20 l-35 -21 -92 63
c-103 69 -116 84 -126 147 l-7 43 28 -18 28 -18 -14 21 c-9 16 -11 30 -4 49
12 33 35 43 41 18 5 -19 54 -50 54 -34 0 4 9 10 20 13 15 4 20 14 20 36 0 19
6 34 16 38 8 3 13 12 10 19 -8 20 5 74 17 74 6 0 8 -28 3 -80 -3 -44 -4 -80
-1 -80 10 0 50 25 76 48 16 14 36 22 50 20 l24 -3 -22 -20 c-26 -22 -29 -40
-10 -59 11 -11 16 -11 31 0 11 7 16 20 13 29 -9 23 10 18 27 -7 l16 -22 0 21
c0 12 -9 27 -20 33 -11 6 -18 15 -14 21 4 6 11 6 20 -2 8 -6 14 -8 14 -3 0 5
5 2 10 -7 12 -20 -6 -89 -29 -107 -9 -7 -10 -11 -3 -7 19 10 15 -36 -9 -100
-11 -30 -19 -60 -17 -66 2 -6 23 16 47 48 40 54 51 43 15 -14 -20 -31 -17 -39
6 -18 10 9 29 47 42 84 20 58 23 85 23 221 0 153 0 156 -32 222 -34 72 -89
136 -140 162 -39 20 -44 20 -37 1 7 -17 -11 -21 -21 -4 -4 6 -14 8 -22 5 -8
-3 -12 -2 -9 3 3 5 0 11 -7 14 -10 4 -13 -1 -10 -17 4 -20 1 -21 -53 -19 -40
1 -62 7 -70 18 -10 14 -12 13 -17 -6 -3 -12 -11 -19 -19 -16 -7 2 -21 -3 -31
-11 -16 -15 -17 -14 -11 1 3 10 1 17 -5 17 -6 0 -11 7 -11 15 0 41 -126 -60
-162 -129 -42 -81 -61 -252 -37 -341 18 -71 31 -95 50 -95 23 0 39 -29 40 -72
l1 -33 13 29 c14 33 17 28 30 -48 6 -35 7 -37 21 -20 13 18 14 17 12 -13 -1
-19 5 -40 16 -52 18 -20 18 -21 -5 -29 -13 -5 -39 -13 -56 -17 -18 -3 -39 -15
-45 -24 -7 -10 -32 -30 -55 -44 -33 -21 -56 -27 -107 -28 -35 -1 -68 1 -74 5
-27 16 -70 -79 -94 -211 -7 -40 -15 -60 -23 -57 -8 4 -19 -28 -34 -98 -12 -57
-32 -141 -45 -188 -12 -47 -38 -142 -57 -212 l-34 -128 -142 0 -143 0 0 949 0
949 69 7 c39 4 75 4 80 0 6 -3 11 -1 11 5 0 6 8 9 18 6 36 -11 761 -16 767 -5
5 7 14 4 26 -7 18 -16 19 -16 19 9 0 32 26 37 35 7z m2174 1 c10 -10 23 -31
28 -47 13 -38 37 -38 41 0 l4 29 276 -9 c152 -5 357 -8 455 -7 l177 2 0 -944
0 -945 -1005 0 -1005 0 0 950 0 950 485 2 c424 3 485 1 489 -12 2 -8 4 0 5 18
1 37 21 42 50 13z m2246 -33 l24 -53 0 53 1 52 438 -2 437 -3 3 -967 2 -968
-214 0 c-194 0 -216 2 -225 18 -10 16 -10 16 -11 0 0 -16 -11 -18 -90 -18
l-90 0 0 30 c0 22 -5 30 -18 30 -16 0 -19 17 -30 178 -14 200 -41 414 -53 407
-19 -12 -65 -194 -71 -277 -1 -21 -6 -38 -11 -38 -5 0 -4 -7 3 -15 7 -8 13
-46 14 -85 2 -66 1 -70 -19 -64 -19 6 -19 6 -2 -13 22 -25 22 -33 -2 -33 -18
0 -19 8 -19 113 0 125 -5 168 -27 221 -8 20 -13 36 -10 36 3 0 -7 24 -22 53
l-28 52 -3 -282 c-2 -242 -4 -283 -17 -283 -12 0 -15 16 -16 73 -1 39 -4 99
-8 132 l-7 60 -7 -70 c-4 -38 -10 -105 -13 -147 l-7 -78 -503 0 -504 0 0 963
c0 530 3 967 7 970 3 4 247 7 540 7 l534 0 24 -52z m6409 3 c7 -55 15 -61 91
-65 25 -1 53 -10 63 -19 10 -9 22 -17 27 -17 21 0 98 -77 120 -119 36 -72 58
-168 50 -220 -5 -31 -9 -40 -15 -30 -7 11 -10 10 -16 -6 -7 -18 -8 -18 -15 1
-7 18 -8 18 -14 -3 -8 -25 -35 -20 -35 6 -1 15 -1 15 -10 0 -6 -11 -18 -15
-35 -11 -14 2 -32 -2 -41 -9 -9 -8 -28 -12 -42 -10 -28 3 -42 -12 -42 -48 0
-23 1 -23 18 -8 10 10 21 15 24 12 3 -3 13 4 23 15 11 12 30 20 49 20 l31 -1
-26 -22 c-15 -12 -29 -34 -33 -50 -5 -23 -3 -29 19 -37 41 -16 45 -13 45 31 0
26 4 38 11 33 6 -3 9 -17 6 -30 -3 -20 -2 -22 9 -13 20 16 17 -1 -3 -24 -10
-11 -12 -17 -5 -13 17 10 7 -34 -19 -86 -16 -31 -128 -138 -145 -138 -12 0
-204 163 -204 173 0 7 -3 30 -6 52 -6 39 -6 40 10 18 10 -13 23 -23 29 -23 8
0 8 3 -1 9 -18 11 -1 75 21 79 13 3 17 -4 17 -25 0 -43 11 -52 49 -44 32 6 35
9 36 49 2 59 3 62 20 62 24 0 17 14 -15 32 -17 9 -30 13 -30 8 0 -19 -32 -10
-37 10 -5 19 -6 19 -23 -3 -17 -20 -19 -20 -25 -4 -9 23 -22 22 -30 -3 -5 -16
-9 -18 -19 -8 -7 7 -15 22 -19 32 -7 18 -9 18 -22 -8 -8 -16 -15 -36 -15 -45
-1 -33 -30 22 -30 57 0 18 -4 31 -9 28 -8 -5 -31 35 -31 56 0 6 -10 19 -21 29
-27 23 -21 49 26 119 19 29 35 55 35 59 0 12 82 67 121 81 l35 13 -4 53 c-4
52 -4 54 20 54 23 0 26 -5 32 -49z m-2200 -55 c21 -71 20 -76 -9 -76 -16 0
-25 6 -25 15 0 8 -7 15 -15 15 -18 0 -90 -43 -123 -74 l-24 -21 7 30 c4 17 12
34 16 40 5 5 9 16 9 24 0 12 -3 12 -12 3 -7 -7 -27 -12 -45 -12 -76 0 -110
-105 -59 -181 21 -31 23 -41 16 -75 -5 -21 -9 -79 -9 -129 1 -106 23 -184 59
-202 30 -15 40 -31 41 -73 l1 -35 12 28 13 29 11 -29 c6 -15 12 -44 14 -63 3
-33 0 -36 -52 -62 -30 -15 -99 -41 -152 -59 -54 -17 -98 -35 -98 -39 0 -9 35
-3 65 11 11 5 54 20 95 33 64 21 76 22 78 9 5 -18 -24 -50 -62 -70 -16 -8 -62
-16 -104 -17 -65 -3 -75 -1 -79 15 -6 22 -8 22 -32 9 -23 -12 -43 -64 -81
-215 -31 -119 -94 -314 -145 -450 -15 -38 -31 -83 -36 -100 -6 -16 -17 -49
-26 -72 l-15 -43 -109 0 -109 0 0 945 0 945 484 0 485 0 15 -54z m1026 -891
l0 -945 -108 0 -108 0 -17 93 c-10 50 -24 148 -32 217 -21 176 -33 255 -50
321 -8 31 -15 68 -15 83 0 37 -37 124 -70 166 -27 34 -36 38 -107 49 -116 19
-246 58 -257 79 -12 20 -8 92 5 108 6 8 4 14 -5 17 -16 7 -30 -7 -40 -40 -4
-13 -12 -23 -17 -23 -5 0 -9 -8 -9 -17 1 -26 -63 -213 -72 -213 -5 0 -8 8 -8
18 0 9 -27 51 -60 92 -33 41 -60 79 -60 84 0 4 10 5 23 2 34 -10 127 -20 127
-13 0 3 -18 16 -40 28 -31 18 -40 29 -40 49 0 14 -7 35 -15 46 -14 18 -14 17
-4 -9 16 -36 4 -46 -20 -16 -11 13 -20 20 -21 15 0 -5 -6 -3 -14 4 -8 6 -12
19 -9 27 5 13 2 15 -15 11 -21 -6 -32 8 -32 39 0 9 6 13 15 10 11 -5 13 0 8
23 -3 19 -1 30 6 30 6 0 11 8 12 18 0 13 3 12 11 -5 7 -15 20 -23 37 -23 50 1
72 23 97 96 l23 69 0 -77 c1 -43 3 -78 6 -78 2 0 20 9 39 19 33 19 34 19 39 1
3 -13 11 -17 26 -13 12 3 21 1 21 -6 0 -22 18 -10 29 19 11 34 26 41 18 9 -4
-16 -3 -18 8 -9 25 21 23 -27 -4 -82 -17 -37 -24 -64 -21 -84 5 -27 6 -28 18
-9 16 28 15 11 -3 -32 -8 -19 -15 -40 -15 -46 0 -17 41 25 72 72 34 55 37 43
4 -21 -25 -49 -22 -62 7 -30 51 56 85 345 55 457 -13 46 -12 54 4 80 38 63 12
147 -50 165 -53 14 -54 14 -46 -25 7 -40 3 -43 -23 -17 -10 11 -37 30 -61 43
-34 18 -45 21 -51 10 -7 -11 -14 -10 -35 4 -25 17 -26 17 -26 -4 0 -12 -4 -19
-10 -16 -5 3 -26 2 -45 -4 -44 -12 -58 5 -17 22 33 13 32 12 32 67 l0 40 455
0 455 0 0 -945z m-9561 714 c1 8 8 11 21 8 13 -3 20 0 20 9 0 21 18 17 25 -5
6 -21 35 -37 35 -20 0 6 5 7 12 3 8 -5 9 -2 5 9 -12 33 4 16 19 -18 16 -40 20
-100 4 -75 -7 11 -10 6 -11 -20 l-1 -35 -13 30 c-17 39 -55 75 -55 52 0 -8 4
-17 9 -19 13 -5 24 -48 12 -48 -6 0 -11 10 -11 21 0 16 -3 19 -13 11 -7 -6
-26 -12 -42 -14 -26 -3 -30 0 -27 20 2 12 -2 22 -7 22 -6 0 -11 -5 -11 -12 0
-6 -3 -8 -7 -5 -3 4 -12 -1 -19 -11 -7 -9 -14 -12 -14 -6 0 7 -9 14 -20 17
-26 7 -25 33 1 77 l21 34 29 -32 c31 -35 39 -31 13 6 -8 12 -12 27 -8 33 4 7
12 1 20 -17 7 -16 13 -23 13 -15z m6481 -291 c0 -49 1 -50 18 -35 10 10 23 17
29 17 6 0 25 16 42 35 17 19 35 35 41 35 16 0 12 -50 -5 -56 -28 -11 -15 -20
25 -18 27 1 40 -3 40 -11 0 -8 6 -15 13 -18 8 -3 6 -10 -8 -21 -11 -8 -15 -16
-8 -16 13 0 10 -50 -6 -92 -11 -29 -66 -78 -88 -78 -8 0 -30 -16 -49 -37 -23
-25 -35 -32 -38 -22 -2 8 -7 22 -10 31 -3 10 -20 20 -43 24 -82 15 -138 57
-149 112 -7 34 2 40 26 20 12 -11 12 -10 3 2 -7 10 -8 21 -3 30 5 9 5 19 -1
27 -7 8 -7 18 1 32 12 23 30 28 30 9 1 -8 6 -5 15 5 14 19 45 17 73 -5 9 -8
12 -5 12 10 0 26 20 72 32 72 4 0 8 -23 8 -52z m3397 25 c13 -8 23 -13 23 -9
0 3 9 -2 19 -11 85 -79 101 -96 101 -108 0 -23 -18 -27 -50 -10 -17 9 -35 13
-40 10 -17 -10 -61 27 -101 86 -21 32 -39 60 -39 63 0 9 64 -6 87 -21z m-3720
-385 c-3 -13 -2 -42 2 -65 5 -24 4 -43 0 -43 -5 0 -9 -11 -9 -25 0 -19 4 -23
18 -18 15 6 15 5 4 -10 -11 -13 -10 -20 8 -45 16 -22 21 -40 18 -66 -4 -38 1
-47 50 -84 18 -14 25 -29 27 -67 1 -28 6 -63 9 -80 6 -27 1 -21 -10 14 -3 10
-8 11 -15 4 -5 -5 -21 -8 -35 -5 -21 4 -25 9 -21 28 2 13 0 24 -4 24 -5 0 -12
12 -15 28 -4 15 -11 33 -17 40 -5 6 -7 12 -3 12 4 0 0 10 -8 23 -8 12 -24 62
-36 112 -31 123 -37 135 -72 135 -16 0 -42 -7 -58 -15 -27 -14 -60 -12 -60 5
0 14 28 31 52 32 13 1 37 14 53 29 30 27 87 57 114 58 9 1 11 -6 8 -21z m4921
-33 c37 -4 77 -13 89 -21 12 -7 61 -23 110 -35 48 -12 93 -27 98 -33 6 -6 27
-12 48 -12 58 -2 164 -61 224 -124 42 -44 54 -64 59 -100 10 -64 -10 -163 -57
-287 -22 -59 -45 -132 -50 -162 -14 -75 -49 -127 -91 -136 -18 -3 -45 -11 -60
-17 -24 -9 -34 -5 -85 30 -81 56 -172 112 -181 112 -11 0 -2 -163 10 -177 8
-10 -5 -13 -61 -13 -69 0 -71 1 -71 25 0 14 -7 28 -15 31 -21 8 -21 83 1 91
12 4 14 16 9 62 -11 102 -15 112 -35 106 -16 -5 -21 2 -30 37 -11 40 -11 43
14 63 14 11 26 28 26 36 0 9 10 27 22 40 13 15 19 18 15 7 -3 -9 0 -19 8 -22
12 -4 14 -42 11 -228 l-5 -223 10 228 10 228 27 24 c25 22 26 25 11 40 -15 15
-12 20 32 66 28 29 53 65 59 87 13 47 13 142 0 142 -5 0 -10 -22 -10 -49 0
-68 -38 -146 -99 -204 -37 -35 -51 -43 -51 -31 0 10 -7 25 -15 34 -12 14 -16
48 -18 156 -3 126 -5 144 -28 192 -15 28 -22 52 -18 52 5 0 10 8 10 18 1 12 3
11 6 -4 4 -19 13 -23 71 -29z m-11063 -88 c2 -32 9 -80 15 -107 9 -40 15 -47
31 -43 40 11 54 -103 19 -159 -16 -27 -20 -51 -20 -126 0 -51 -4 -91 -9 -88
-4 3 -12 47 -16 98 -5 51 -10 85 -13 74 -4 -19 -9 -19 -102 7 -25 6 -75 33
-112 58 -105 74 -162 99 -224 99 -53 0 -55 1 -70 35 -19 45 -20 43 24 54 46
13 130 8 161 -9 33 -17 134 -19 215 -4 55 11 72 11 79 1 8 -11 6 7 -9 83 -5
27 -10 30 -42 30 -41 0 -96 33 -111 67 -15 33 1 36 50 10 45 -23 89 -25 89 -3
0 6 6 18 12 24 16 16 28 -19 33 -101z m6782 29 c12 -23 14 -49 10 -120 -7
-120 -16 -179 -29 -187 -6 -4 -7 -16 -3 -29 5 -15 3 -20 -3 -16 -6 3 -14 -3
-17 -15 l-7 -21 -16 23 c-14 20 -14 23 1 34 18 13 24 31 8 20 -5 -3 -12 -1
-16 5 -3 5 0 10 7 10 8 0 15 12 16 26 2 21 -2 25 -16 20 -15 -5 -15 -4 1 8 11
8 24 13 30 12 7 -2 9 -1 5 1 -14 8 -9 23 7 23 8 0 15 5 15 12 0 6 -3 8 -7 4
-13 -12 -30 57 -23 90 6 25 3 35 -11 48 -11 9 -19 21 -19 28 0 8 5 5 11 -4 11
-19 29 -24 29 -8 0 6 -9 19 -21 31 -15 15 -19 28 -14 46 5 20 3 24 -9 20 -9
-4 -16 -2 -16 2 0 5 6 12 13 14 13 6 50 -32 74 -77z m-408 7 c15 -37 34 -140
32 -179 -1 -33 26 -56 39 -33 11 17 50 1 50 -21 0 -20 -33 -36 -51 -24 -8 5
-9 -8 -4 -45 5 -34 3 -51 -4 -51 -6 0 -11 -8 -11 -19 0 -10 -6 -24 -13 -30
-11 -8 -17 -4 -30 22 -20 39 -31 85 -29 115 1 25 -13 30 -22 6 -5 -13 -9 -13
-32 5 -15 12 -35 21 -45 21 -10 0 -26 11 -34 24 -13 19 -14 32 -5 72 16 75 20
84 35 84 13 0 21 -21 39 -101 3 -16 15 -29 27 -32 19 -5 21 -2 17 36 -3 23 -8
51 -12 62 -7 17 -5 16 12 -4 10 -13 22 -19 25 -14 8 13 -16 80 -28 76 -10 -3
-26 28 -40 74 l-6 22 39 -19 c23 -11 44 -31 51 -47z m4027 -38 c6 -53 12 -65
46 -97 21 -21 42 -37 46 -36 4 1 45 -3 92 -9 47 -6 100 -11 119 -10 22 0 39
-7 48 -19 8 -11 16 -18 19 -16 2 1 20 -4 38 -13 81 -39 33 -169 -55 -150 -16
4 -29 10 -29 13 0 9 -49 32 -67 32 -7 0 -13 5 -13 11 0 15 -41 48 -60 49 -9 0
-20 4 -26 10 -5 5 -27 16 -49 23 -35 12 -43 12 -63 -1 l-23 -15 30 -13 c32
-13 38 -28 22 -53 -7 -11 -13 -12 -23 -3 -16 13 -58 12 -58 -1 0 -5 -7 -4 -15
3 -12 10 -15 10 -15 -1 0 -7 -24 -36 -52 -63 -52 -50 -51 -52 6 -13 l29 21 -6
-77 c-3 -42 -2 -77 3 -77 5 0 12 -16 16 -35 3 -19 33 -76 65 -126 32 -50 66
-114 75 -143 9 -28 19 -57 22 -64 3 -10 -66 -12 -336 -12 -289 1 -341 3 -346
15 -3 8 -2 15 2 15 7 0 26 48 38 95 4 15 2 14 -10 -5 -18 -30 -20 -20 -5 31 7
21 16 36 21 33 4 -3 6 -10 3 -15 -4 -5 4 -5 19 1 14 5 26 8 26 5 0 -2 17 11
37 30 21 19 39 33 40 31 5 -5 -29 -165 -42 -201 -7 -17 -5 -17 9 2 9 13 24 62
32 110 18 102 57 179 112 221 56 43 122 108 90 88 -15 -9 -56 -32 -90 -52 -35
-19 -90 -58 -123 -85 -33 -28 -68 -55 -78 -61 -17 -9 -18 -7 -12 24 4 18 19
56 35 83 15 28 40 80 56 117 18 43 31 63 36 55 6 -9 10 -9 16 0 4 7 44 21 87
32 l80 20 -62 -6 c-62 -5 -63 -5 -63 19 0 13 7 33 15 44 8 10 30 70 50 132 35
108 53 135 83 125 6 -3 12 0 12 6 0 6 9 11 19 11 31 0 55 12 41 20 -7 4 8 7
34 6 l45 -1 7 -60z m-3806 -55 c-1 -25 2 -82 5 -126 5 -68 3 -83 -10 -87 -8
-4 -15 -1 -16 6 0 7 -6 -1 -13 -17 -16 -35 -23 -25 -23 34 -1 25 1 35 4 23 2
-13 9 -23 15 -23 5 0 8 7 4 15 -3 9 0 15 9 15 8 0 15 4 15 9 0 12 -30 22 -42
14 -6 -3 -8 -1 -5 4 4 6 1 16 -7 22 -18 15 -29 87 -16 111 7 13 6 20 -3 23 -7
4 -6 6 4 6 10 1 19 -10 23 -24 9 -35 23 -23 31 26 9 53 25 33 25 -31z m-7310
-963 c0 -9 11 -12 35 -9 32 4 35 2 35 -22 0 -14 5 -26 10 -26 6 0 10 11 10 25
0 20 5 25 25 25 15 0 28 -7 32 -16 6 -15 7 -15 20 1 22 32 27 8 7 -40 -19 -45
-42 -62 -36 -26 1 9 -2 28 -7 42 l-10 24 0 -27 c-1 -25 -5 -28 -36 -28 -32 0
-36 3 -42 31 -4 22 -9 27 -17 19 -7 -7 -7 -16 1 -29 11 -17 7 -19 -58 -20 -64
-1 -70 1 -78 21 -8 21 -9 20 -22 -15 -15 -43 -36 -49 -36 -9 0 15 -4 37 -8 50
-10 30 13 30 25 0 6 -17 9 -18 9 -6 1 22 21 34 31 18 5 -9 9 -9 14 -1 4 6 20
11 36 11 16 0 32 5 35 10 9 14 25 12 25 -3z m344 -14 l14 -28 13 28 c15 32 39
36 39 5 0 -17 3 -19 12 -10 7 7 27 12 44 12 18 0 36 5 39 10 5 8 12 7 22 -2 8
-6 27 -12 41 -13 23 0 27 -5 30 -33 l3 -32 -47 2 c-42 3 -49 6 -55 28 l-7 25
-1 -27 c-1 -27 -3 -28 -56 -27 -33 1 -55 6 -55 13 0 6 -5 4 -10 -4 -9 -13 -12
-12 -25 4 -13 17 -15 18 -15 3 0 -9 -4 -17 -10 -17 -5 0 -10 20 -10 45 0 51
13 58 34 18z m1638 15 c13 -7 28 -20 35 -28 11 -13 12 -13 13 1 0 13 11 17 52
18 29 0 54 5 56 11 5 15 32 12 32 -3 0 -9 11 -12 35 -9 32 4 35 2 35 -22 0
-14 5 -26 10 -26 6 0 10 11 10 25 0 20 5 25 25 25 15 0 28 -7 32 -16 6 -15 7
-15 20 1 23 32 27 7 7 -41 -18 -43 -42 -59 -36 -23 1 8 -2 26 -7 40 l-10 24 0
-27 c-1 -25 -5 -28 -36 -28 -29 0 -36 4 -41 26 -5 17 -10 22 -17 15 -7 -7 -6
-15 2 -25 10 -12 2 -14 -61 -13 -68 2 -72 3 -78 27 -6 24 -7 23 -19 -12 -14
-43 -48 -79 -38 -40 3 13 -1 38 -8 55 l-14 32 -1 -32 c0 -31 -2 -33 -35 -33
-34 0 -35 1 -35 38 0 21 3 42 7 45 10 11 41 8 65 -5z m532 -15 l14 -28 13 28
c15 33 39 36 40 5 0 -13 3 -17 6 -10 2 6 22 12 43 12 21 0 41 6 43 13 4 9 8 9
15 -2 6 -8 25 -14 44 -15 30 -1 33 -4 36 -33 l3 -32 -50 1 c-48 0 -51 1 -52
26 l-2 27 -4 -28 c-4 -26 -7 -27 -56 -26 -29 1 -55 7 -59 13 -5 8 -8 7 -8 -1
0 -20 -30 -15 -31 5 -1 16 -2 16 -6 0 -9 -34 -23 -17 -23 27 0 51 13 58 34 18z
m3986 5 c0 -17 3 -19 12 -10 7 7 22 12 35 12 18 0 23 -6 23 -25 0 -31 17 -33
22 -2 4 28 44 36 62 11 11 -14 14 -15 18 -2 4 10 23 15 57 17 l51 1 0 -35 c0
-36 -1 -36 -37 -33 -30 2 -38 8 -43 27 -5 23 -7 21 -22 -17 -16 -40 -45 -61
-34 -24 3 9 -1 31 -9 47 l-13 30 -1 -32 -1 -32 -70 1 -70 1 0 44 c0 24 5 43
10 43 6 0 10 -10 10 -22z m2170 0 c0 -17 3 -19 12 -10 7 7 22 12 35 12 18 0
23 -6 23 -25 0 -31 17 -33 22 -2 4 28 44 36 62 11 11 -14 14 -15 18 -2 4 10
23 15 57 17 l51 1 0 -35 c0 -36 -1 -36 -37 -33 -30 2 -38 8 -43 27 -5 23 -7
21 -22 -17 -16 -40 -45 -61 -34 -24 3 9 -1 31 -9 47 l-13 30 -1 -32 -1 -32
-70 1 -70 1 0 44 c0 24 5 43 10 43 6 0 10 -10 10 -22z m-3747 -1 c42 0 47 -3
47 -24 0 -12 5 -23 10 -23 6 0 10 11 10 24 0 24 2 24 73 23 l72 -2 3 -32 c2
-19 -1 -33 -7 -33 -6 0 -11 11 -11 25 0 14 -4 25 -10 25 -5 0 -10 -11 -10 -25
0 -16 -6 -25 -15 -25 -9 0 -15 9 -15 25 0 14 -4 25 -10 25 -5 0 -10 -11 -10
-25 0 -23 -3 -25 -50 -25 -32 0 -50 4 -50 12 0 9 -3 9 -12 0 -7 -7 -31 -12
-55 -12 -40 0 -43 2 -44 28 l-2 27 -4 -28 c-4 -26 -8 -28 -41 -25 -34 3 -37 6
-37 33 0 28 3 30 45 36 25 3 52 4 60 1 8 -2 36 -5 63 -5z m2170 0 c42 0 47 -3
47 -24 0 -12 5 -23 10 -23 6 0 10 11 10 25 0 25 1 26 73 23 l72 -3 3 -32 c4
-35 -15 -46 -20 -13 -2 12 -7 21 -13 21 -5 0 -11 -9 -13 -21 -5 -29 -22 -25
-22 5 0 14 -4 25 -10 25 -5 0 -10 -11 -10 -25 0 -23 -3 -25 -50 -25 -32 0 -50
4 -50 12 0 9 -3 9 -12 0 -7 -7 -31 -12 -54 -12 -39 0 -42 2 -47 33 -6 39 0 50
22 41 9 -3 37 -7 64 -7z m-2433 -214 l13 -28 9 28 c12 32 38 36 38 5 0 -20 1
-20 13 -5 8 11 28 17 57 17 87 2 103 -3 111 -32 9 -34 5 -38 -48 -38 -42 0
-43 1 -45 33 l-1 32 -4 -32 c-4 -29 -8 -33 -33 -33 -17 0 -33 7 -39 18 -10 16
-10 16 -11 0 0 -26 -20 -22 -21 5 l0 22 -11 -22 c-6 -13 -14 -23 -18 -23 -4 0
-12 10 -18 23 l-11 22 0 -22 c-2 -41 -21 -24 -21 17 0 48 20 54 40 13z m-434
-274 c1 -5 2 -17 3 -26 2 -17 2 -17 12 0 11 18 44 23 54 7 4 -6 13 -5 25 3 15
8 25 9 37 1 28 -18 27 -34 -4 -35 -23 -1 -24 -2 -5 -6 29 -6 29 -23 -1 -23
-13 0 -33 11 -45 25 -25 28 -42 32 -42 10 0 -8 9 -15 20 -15 11 0 20 -4 20
-10 0 -17 -48 -11 -59 8 -10 16 -10 16 -11 0 0 -10 -7 -18 -15 -18 -9 0 -15 9
-15 25 0 14 -4 25 -10 25 -5 0 -10 -11 -10 -25 0 -14 -4 -25 -10 -25 -5 0 -10
11 -10 24 0 22 -2 23 -25 13 -14 -7 -25 -18 -25 -24 0 -7 -7 -13 -16 -13 -12
0 -14 9 -12 43 2 34 7 43 24 45 12 2 28 -3 35 -10 18 -17 71 -18 65 -2 -3 7
-2 15 1 18 7 7 17 -1 19 -15z m2170 0 c1 -5 2 -14 3 -19 1 -6 8 -6 20 1 20 13
51 6 51 -11 0 -7 -8 -9 -20 -5 -14 5 -20 2 -20 -9 0 -25 36 -18 48 9 12 27 40
33 60 13 19 -19 14 -28 -15 -29 -24 -2 -25 -2 -5 -6 12 -2 22 -9 22 -14 0 -13
-47 -11 -56 2 -4 8 -9 8 -17 0 -15 -15 -57 -14 -58 2 0 10 -2 10 -6 0 -9 -23
-33 -14 -33 12 0 14 -4 25 -10 25 -5 0 -10 -11 -10 -25 0 -16 -6 -25 -15 -25
-8 0 -15 8 -15 19 0 14 -6 17 -25 13 -14 -2 -25 -11 -25 -18 0 -8 -4 -14 -10
-14 -5 0 -10 20 -10 45 0 40 2 45 23 45 13 0 28 -5 35 -12 15 -15 74 -17 68
-1 -3 6 -2 14 1 17 7 7 17 -1 19 -15z m5045 -1151 c-7 -18 2 -115 12 -124 2
-2 34 -6 73 -10 67 -6 94 -17 94 -36 0 -5 -8 -4 -19 1 -10 6 -22 7 -26 3 -5
-4 -5 -1 -1 6 4 6 3 12 -3 12 -5 0 -11 -7 -13 -16 -5 -25 -93 -26 -115 -1 -17
18 -17 18 -25 -2 -8 -23 -29 -27 -60 -10 -21 11 -21 12 3 25 13 7 31 13 40 14
13 0 14 9 5 71 -8 65 -7 73 9 85 23 17 36 9 26 -18z m-8659 -8 c-2 -17 -1 -50
2 -75 6 -36 11 -45 27 -45 10 0 19 -3 19 -8 0 -4 20 -6 45 -4 46 4 46 4 124
-78 51 -52 81 -77 84 -68 3 8 11 -2 21 -24 18 -43 21 -62 6 -53 -6 3 -10 -5
-10 -18 0 -14 -7 -27 -15 -31 -8 -3 -15 -13 -15 -23 -1 -14 -4 -13 -15 7 -11
20 -14 21 -15 7 0 -10 -4 -15 -10 -12 -5 3 -10 -1 -10 -10 0 -9 -4 -14 -9 -10
-6 3 -15 -4 -22 -16 -8 -17 -13 -19 -19 -8 -7 10 -11 10 -24 0 -13 -11 -17
-11 -22 3 -3 9 -10 14 -14 11 -5 -3 -11 -1 -15 5 -4 7 -13 7 -26 0 -15 -8 -21
-7 -25 3 -4 10 -16 13 -40 10 -42 -6 -64 10 -64 46 l-1 26 -15 -27 c-17 -33
-22 -34 -40 -10 -22 28 -17 103 10 155 l23 47 -30 -17 c-17 -11 -34 -32 -41
-53 -8 -24 -18 -36 -33 -38 -37 -5 -27 23 25 69 46 41 46 42 17 36 -26 -4 -27
-3 -12 8 9 7 17 17 17 23 0 6 20 18 45 28 30 11 44 22 41 30 -3 8 -8 36 -12
64 -7 54 5 80 35 80 14 0 17 -7 13 -30z m-1743 -386 c26 -71 92 -223 146 -339
120 -261 148 -326 141 -333 -4 -3 -23 0 -43 6 -21 6 -41 8 -46 3 -5 -5 3 -11
17 -15 19 -5 28 -16 36 -47 14 -51 6 -92 -17 -87 -25 5 -83 109 -72 130 5 9 6
19 2 21 -8 5 -88 18 -133 23 -14 1 -34 6 -44 10 -13 5 -17 4 -12 -4 3 -6 2
-13 -4 -17 -5 -3 -10 -2 -10 4 0 22 -61 79 -91 85 -17 3 -64 22 -105 41 l-75
36 -34 -27 -35 -26 -65 47 c-36 26 -64 52 -62 58 2 6 22 21 45 33 l41 22 -31
6 c-25 5 -29 10 -25 27 4 17 3 18 -9 8 -12 -10 -13 -9 -8 5 4 11 1 16 -13 16
-27 0 -55 34 -51 61 5 35 28 36 28 0 0 -27 4 -31 35 -37 22 -4 32 -10 28 -18
-3 -6 3 -2 15 8 12 11 22 27 22 37 0 10 5 21 10 24 6 3 10 19 10 35 0 16 5 32
10 35 6 4 10 -12 10 -40 l0 -45 28 17 c15 9 39 28 54 41 17 15 33 22 43 18 15
-5 13 -10 -10 -37 -34 -41 -30 -73 9 -77 32 -4 45 10 47 48 1 23 2 23 8 -5 7
-30 7 -30 15 -6 7 19 4 29 -13 42 -25 20 -27 29 -6 29 8 0 15 -6 15 -12 0 -9
4 -8 10 2 8 12 10 10 10 -9 0 -37 -19 -138 -40 -209 -22 -74 -12 -71 41 11 40
62 50 63 24 0 -8 -20 -14 -38 -11 -40 2 -2 11 15 20 38 21 53 38 188 36 294
-1 44 -1 82 0 85 4 11 10 38 27 107 11 44 21 67 25 59 4 -8 30 -72 57 -142z
m10557 80 c5 -19 9 -22 15 -12 7 10 9 10 9 -2 0 -13 1 -13 10 0 7 12 11 10 20
-10 10 -24 10 -24 6 5 l-5 30 14 -30 c17 -36 21 -69 5 -45 -7 11 -10 5 -10
-25 0 -50 -19 -28 -21 25 -1 32 -2 33 -9 10 -4 -14 -8 -18 -9 -9 -1 9 -8 16
-17 16 -10 0 -14 -7 -11 -19 3 -10 1 -16 -3 -13 -5 3 -10 1 -12 -5 -1 -5 -14
-11 -27 -12 -19 -2 -26 3 -31 22 -6 22 -8 23 -15 7 -6 -15 -10 -16 -16 -5 -5
7 -9 8 -9 2 0 -7 -11 -9 -26 -6 -23 4 -25 8 -20 36 4 17 13 38 22 46 14 13 18
12 40 -13 17 -20 24 -24 24 -12 0 9 5 13 10 10 6 -3 10 -1 10 5 0 7 7 10 15 6
9 -3 15 0 15 9 0 25 19 17 26 -11z m-48 -244 c-3 -44 -4 -80 -3 -80 11 0 66
34 80 50 20 22 55 27 55 9 0 -7 -6 -17 -14 -23 -22 -18 -29 -63 -10 -70 25 -9
54 12 54 40 0 14 4 22 10 19 6 -3 10 -18 10 -32 0 -36 9 -24 20 28 9 43 9 43
4 -11 -3 -30 -9 -56 -14 -58 -4 -2 -6 -11 -3 -21 9 -34 -32 -106 -83 -147 -88
-72 -91 -76 -87 -122 1 -23 -1 -42 -7 -42 -6 0 -10 -40 -10 -101 0 -121 -16
-130 -41 -23 -19 84 -33 120 -51 126 -10 4 -11 8 -1 20 7 8 10 18 7 21 -11 10
26 40 58 46 l31 6 -49 32 c-139 91 -144 96 -159 147 -20 66 -19 69 11 49 27
-17 27 -17 13 5 -12 19 -12 26 1 49 19 32 34 32 38 -2 2 -14 8 -23 13 -19 5 3
16 1 22 -5 7 -5 23 -8 35 -4 18 4 22 13 22 43 0 21 7 45 15 54 8 8 13 21 10
29 -6 15 10 67 21 67 4 0 4 -36 2 -80z m-6042 -595 c18 -14 39 -25 46 -25 20
0 166 -143 178 -174 5 -15 10 -37 10 -49 0 -16 -5 -11 -20 19 -18 36 -24 40
-47 36 -20 -4 -25 -2 -21 10 8 19 -11 49 -19 31 -5 -14 -83 -18 -83 -5 0 4 7
16 15 26 19 25 19 32 1 39 -8 3 -26 -3 -40 -14 -23 -18 -26 -18 -26 -4 0 9 5
25 11 36 8 15 7 24 -2 35 -6 8 -14 12 -17 9 -9 -9 -32 17 -32 36 0 25 7 24 46
-6z"/>
<path d="M3350 5046 c0 -14 -4 -26 -10 -26 -5 0 -10 5 -10 11 0 8 -14 10 -42
6 -31 -4 -48 -1 -60 10 -16 14 -18 14 -18 1 0 -24 -58 -41 -76 -24 -8 8 -14
19 -14 25 0 15 -6 14 -38 -6 -46 -28 -93 -76 -113 -115 -67 -131 -61 -419 10
-454 32 -16 41 -32 41 -74 1 -34 1 -35 14 -11 l13 23 6 -23 c4 -13 7 -34 7
-46 0 -25 15 -31 23 -10 7 16 27 -11 27 -36 0 -28 -57 -76 -123 -105 -32 -14
-56 -27 -53 -29 2 -2 21 3 41 11 44 19 75 21 75 4 0 -22 -51 -78 -93 -102 -34
-20 -51 -23 -89 -19 -64 7 -64 23 -3 68 12 9 3 8 -25 -4 -64 -28 -118 -120
-221 -381 -17 -41 -39 -94 -50 -118 -10 -23 -19 -49 -19 -57 0 -27 108 -95
222 -140 l56 -23 6 24 c4 13 9 52 12 86 4 42 16 81 35 116 27 48 63 168 54
181 -2 4 -8 41 -14 83 -15 110 6 153 107 219 l44 28 54 -45 c65 -52 86 -59
184 -58 92 0 134 20 158 72 9 20 17 39 19 41 1 2 15 -1 30 -6 25 -9 28 -8 29
11 1 17 -15 29 -82 63 -84 41 -106 40 -59 -3 24 -22 25 -25 11 -51 -8 -16 -26
-39 -40 -52 -53 -50 -163 -23 -245 60 -39 38 -39 58 -2 72 24 9 30 18 36 54 3
24 9 43 13 43 3 0 24 -18 47 -39 34 -33 45 -38 73 -34 l32 5 -85 60 c-98 68
-111 84 -121 153 -7 49 -6 50 13 33 18 -17 19 -16 18 10 -2 46 10 59 59 60 25
1 48 -3 52 -9 5 -9 -3 -10 -30 -5 -29 6 -36 4 -36 -9 0 -9 5 -13 11 -9 6 3 15
1 19 -6 13 -22 60 17 60 51 0 15 6 32 13 36 6 4 13 25 13 46 1 21 7 44 14 50
10 10 11 -7 7 -82 -6 -89 -5 -92 12 -77 10 9 22 16 28 16 5 0 20 11 33 25 28
30 60 33 60 6 0 -10 -7 -21 -15 -25 -18 -7 -20 -30 -2 -44 15 -13 52 11 42 27
-11 18 17 12 31 -6 12 -17 13 -16 14 4 0 13 -8 24 -20 28 -28 9 -25 25 5 23
18 -2 25 -8 25 -23 -1 -36 -29 -179 -44 -220 -31 -83 -12 -81 45 3 20 31 29
39 24 22 -4 -14 -13 -35 -21 -47 -16 -26 -17 -33 -5 -33 22 0 61 109 77 210
23 155 8 266 -54 385 -35 68 -180 187 -158 130 7 -20 -14 -19 -42 1 -21 14
-22 14 -22 -10z m-90 -126 c17 -16 34 -30 37 -30 4 0 2 5 -5 12 -15 15 -16 48
-2 48 6 0 10 -6 10 -14 0 -24 17 -27 41 -7 22 18 23 18 45 -8 13 -14 24 -20
24 -13 0 20 28 14 44 -10 18 -25 21 -93 6 -103 -5 -3 -10 -16 -11 -28 0 -16
-6 -11 -19 21 -11 23 -24 42 -31 42 -7 0 -8 -7 -4 -17 15 -37 17 -53 7 -53 -6
0 -14 10 -17 21 -4 12 -10 17 -14 11 -3 -5 -19 -12 -36 -13 -24 -3 -30 0 -36
21 -4 14 -7 19 -8 13 -1 -7 -7 -13 -15 -13 -8 0 -17 -6 -20 -12 -5 -10 -7 -10
-12 0 -3 6 -13 12 -21 12 -12 0 -14 9 -11 38 3 20 8 46 12 57 5 11 -7 -2 -26
-30 l-33 -49 -3 32 c-2 24 4 43 23 68 14 19 30 34 35 34 5 0 23 -13 40 -30z"/>
<path d="M3580 4119 c0 -3 25 -16 56 -28 72 -30 89 -56 79 -119 -4 -26 -9
-139 -10 -251 l-3 -203 31 6 c53 11 101 40 120 74 19 32 19 34 -2 120 -11 48
-33 139 -47 202 -27 120 -51 172 -87 191 -21 12 -137 19 -137 8z"/>
<path d="M3150 3760 c-20 -12 -26 -133 -8 -185 12 -36 17 -40 51 -43 35 -3 39
-1 53 34 26 62 1 182 -41 198 -23 8 -37 7 -55 -4z m66 -21 c13 -14 20 -40 22
-87 3 -58 1 -70 -17 -86 -42 -38 -71 5 -71 108 0 83 26 109 66 65z"/>
<path d="M5136 4747 c-9 -32 -6 -149 4 -172 6 -13 9 -15 9 -5 1 13 2 13 11 0
5 -8 10 -22 10 -30 0 -13 -1 -13 -10 0 -5 8 -10 11 -10 5 0 -14 20 -43 20 -30
0 6 5 2 11 -8 6 -9 14 -15 20 -12 24 16 4 -11 -41 -54 -57 -54 -64 -89 -27
-131 45 -49 51 -52 104 -39 26 6 52 16 58 20 5 5 15 9 22 9 11 0 11 -5 3 -20
-6 -11 -7 -20 -3 -21 4 0 19 -2 33 -3 28 -4 40 8 40 42 0 28 17 28 46 1 19
-18 30 -20 73 -14 l50 7 -52 35 c-29 20 -77 53 -108 74 -31 21 -59 45 -63 54
-3 9 -10 14 -15 11 -5 -3 -18 16 -29 42 -20 45 -21 45 -23 17 -1 -24 -4 -19
-20 30 -10 33 -19 68 -19 78 0 9 -6 17 -14 17 -7 0 -24 25 -36 55 -26 64 -35
73 -44 42z"/>
<path d="M5832 4628 c-2 -32 -50 -188 -58 -188 -6 0 4 103 13 134 3 11 1 16
-5 12 -5 -3 -13 -31 -17 -63 -10 -84 -16 -94 -94 -158 -45 -36 -68 -62 -63
-67 11 -11 176 -68 197 -68 21 0 45 41 45 76 0 32 -13 48 -66 80 -17 11 -18
14 -5 35 8 13 20 34 27 47 8 16 13 19 17 10 7 -20 19 92 14 137 -2 25 -4 30
-5 13z"/>
<path d="M12715 3844 c-16 -11 -45 -14 -130 -13 -105 3 -113 1 -165 -27 -48
-26 -55 -33 -53 -58 1 -16 -7 -46 -18 -68 -21 -40 -17 -70 4 -33 6 11 35 45
64 76 47 49 61 58 110 68 31 6 74 11 96 11 21 0 51 6 65 14 15 8 35 17 45 20
9 3 17 10 17 16 0 14 -11 12 -35 -6z"/>
<path d="M3349 1291 c-2 -20 -11 -36 -19 -38 -13 -4 -13 -3 0 6 12 8 12 11 -3
17 -10 3 -32 4 -49 0 -19 -4 -37 -1 -46 6 -13 11 -14 10 -8 -10 6 -17 3 -22
-9 -22 -10 0 -14 5 -9 13 5 9 4 9 -6 0 -15 -14 -5 -34 14 -27 9 4 20 -7 31
-30 9 -19 23 -41 32 -47 12 -11 13 -9 8 13 -8 32 10 46 26 19 14 -21 39 -18
39 5 0 19 16 18 24 -2 4 -10 13 -13 27 -9 13 4 27 1 40 -11 13 -12 19 -13 19
-4 0 10 3 10 15 0 28 -23 16 12 -21 63 -23 32 -44 50 -64 53 -16 4 -31 14 -33
23 -2 9 -6 1 -8 -18z"/>
<path d="M7561 1469 c-22 -18 -23 -25 -17 -77 3 -31 9 -67 12 -78 5 -19 2 -21
-20 -17 -14 3 -23 9 -20 14 9 16 -20 9 -55 -12 -34 -20 -140 -121 -111 -104 8
4 5 -1 -7 -13 -37 -37 -57 -116 -58 -233 0 -89 3 -108 18 -124 11 -10 16 -26
13 -37 -2 -11 -2 -18 1 -15 10 10 54 -47 60 -77 5 -26 7 -27 14 -11 6 18 8 17
18 -10 6 -16 14 -37 17 -45 5 -12 8 -11 13 4 14 38 22 -12 10 -60 -14 -54 -32
-67 -199 -144 -63 -29 -125 -63 -138 -76 -22 -23 -38 -78 -67 -229 -8 -38 -17
-82 -21 -97 l-6 -28 156 0 c103 0 156 4 156 11 0 5 4 7 10 4 5 -3 101 -8 212
-11 158 -4 220 -2 278 10 41 8 95 18 120 21 25 4 55 13 68 21 19 13 22 13 22
-1 0 -9 -5 -25 -10 -36 -10 -18 -7 -19 54 -19 l64 0 6 53 c7 64 7 59 -2 188
-7 108 -21 147 -60 168 -16 9 -18 6 -14 -21 3 -18 1 -28 -5 -25 -5 3 -51 7
-102 8 l-93 3 -24 35 -24 36 23 3 c14 2 54 -4 91 -12 77 -18 89 -19 82 -7 -3
4 -34 16 -68 25 -139 37 -177 56 -190 92 -7 19 -15 34 -19 34 -12 0 -25 -25
-28 -55 -1 -16 -12 -57 -22 -90 -32 -98 -29 -92 -42 -70 -7 12 -38 55 -69 96
-32 42 -58 83 -58 92 0 23 26 22 42 -1 19 -27 41 -32 82 -18 l36 12 -95 70
c-94 69 -102 80 -119 157 l-7 28 21 -21 c11 -11 26 -20 33 -20 6 0 4 5 -6 11
-19 11 -15 53 9 78 11 12 15 7 25 -32 13 -52 13 -52 58 -36 24 8 31 17 32 37
1 15 2 32 4 37 1 6 3 18 3 28 1 9 9 17 17 17 11 0 15 -11 15 -42 0 -39 1 -40
18 -25 10 10 21 15 24 12 2 -3 17 9 33 25 29 30 65 40 65 19 0 -7 -7 -17 -15
-23 -8 -6 -18 -26 -21 -43 -6 -29 -3 -34 21 -43 34 -13 35 -12 42 39 6 44 23
46 24 3 0 -24 1 -25 9 -7 8 19 9 19 9 1 1 -11 -7 -28 -16 -39 -10 -11 -12 -17
-5 -13 17 10 16 -46 -3 -91 -34 -82 3 -60 55 32 l22 40 -6 -40 -5 -40 14 41
c21 67 36 242 26 304 -25 148 -84 240 -188 293 -37 20 -47 21 -37 6 3 -6 -8
-3 -25 5 -24 13 -31 14 -31 3 0 -7 -8 -13 -17 -14 -10 -1 -30 -5 -45 -9 -18
-4 -28 -2 -28 5 0 6 12 14 26 17 25 6 26 9 22 70 -3 43 -10 69 -22 83 -23 26
-34 26 -65 0z m-191 -1020 c0 -21 9 -22 51 -5 18 8 29 -17 29 -65 0 -25 -3
-26 -62 -32 -35 -3 -91 -15 -126 -25 l-62 -20 -15 28 -15 28 68 43 c66 43 110
67 125 68 4 1 7 -9 7 -20z"/>
<path d="M9930 1304 c24 -14 24 -15 3 -11 -18 4 -23 1 -23 -14 0 -10 -5 -19
-11 -19 -5 0 -7 -5 -3 -12 4 -7 3 -8 -5 -4 -6 4 -9 16 -6 27 5 15 1 19 -17 19
-13 0 -35 -8 -48 -17 -14 -10 -26 -17 -27 -15 -13 11 -10 -5 7 -37 26 -51 42
-61 34 -22 -6 27 -4 29 17 24 13 -3 29 -10 36 -15 7 -6 15 -3 22 9 10 17 12
17 24 2 8 -11 24 -16 51 -14 21 2 40 5 42 8 8 8 -91 107 -107 107 -8 -1 -3 -7
11 -16z"/>
<path d="M9566 1208 c-36 -55 -57 -121 -63 -198 -5 -70 -4 -80 11 -80 29 0 17
-30 -35 -83 -49 -50 -51 -51 -65 -32 -32 44 -77 85 -92 85 -23 0 -88 -62 -145
-136 -25 -34 -123 -134 -216 -224 -152 -144 -175 -171 -207 -236 l-37 -74 23
-44 c22 -40 29 -45 104 -70 45 -14 142 -40 217 -56 75 -16 152 -36 172 -45 28
-11 77 -15 207 -15 93 0 170 3 170 6 0 3 -17 42 -39 87 -21 45 -44 105 -50
132 -7 28 -14 58 -17 68 -4 13 0 17 18 17 21 0 25 -7 35 -55 7 -30 30 -92 51
-137 22 -46 42 -91 46 -101 4 -13 17 -17 59 -17 l54 0 -18 78 c-10 42 -24 125
-31 185 -10 93 -14 107 -28 102 -15 -5 -18 6 -24 79 -3 46 -9 91 -12 100 -5
12 1 16 24 16 17 0 34 5 37 10 11 17 25 11 62 -25 35 -34 75 -45 88 -25 9 14
45 13 45 -2 0 -6 -7 -38 -17 -71 l-16 -59 -13 31 c-7 17 -18 31 -24 31 -6 0
-34 -16 -63 -35 -54 -37 -54 -41 2 -25 24 7 42 6 66 -4 28 -12 36 -12 52 -1
28 20 122 14 138 -8 21 -29 38 -183 32 -284 l-6 -93 42 0 42 0 24 122 c13 68
26 153 29 190 3 51 8 65 18 61 22 -8 17 -124 -11 -243 -14 -58 -25 -111 -25
-117 0 -18 97 -18 103 0 4 9 7 9 18 -1 9 -8 61 -12 182 -12 l169 0 -71 76
c-38 42 -83 85 -100 95 -29 17 -30 17 -36 0 -7 -23 -83 -106 -90 -99 -3 3 8
20 25 38 41 44 63 88 55 108 -5 13 -12 6 -30 -28 -12 -25 -33 -54 -46 -65
l-24 -20 16 20 c39 50 68 112 62 136 -8 30 -78 145 -111 181 -13 14 -40 29
-60 33 -21 3 -48 9 -62 11 l-25 6 24 -20 c13 -10 19 -22 14 -25 -5 -3 -27 8
-48 26 -35 28 -69 45 -128 64 -14 4 -8 -12 24 -71 23 -42 39 -80 36 -83 -3 -3
-36 11 -72 31 -36 20 -72 36 -79 36 -11 0 -11 9 -2 49 12 51 32 84 47 75 5 -3
9 0 9 6 0 6 5 8 10 5 6 -3 10 -1 10 6 0 7 12 26 28 43 26 29 26 29 2 13 -70
-48 -165 -67 -196 -39 -10 10 -42 34 -71 55 -48 35 -73 75 -73 115 0 13 3 13
18 -1 10 -10 27 -17 38 -16 17 0 17 2 -3 11 -13 6 -23 15 -23 20 0 5 4 7 8 4
5 -3 6 8 4 25 -2 16 0 29 4 30 5 0 17 2 27 4 14 3 16 1 7 -10 -14 -17 -3 -75
13 -74 7 0 26 6 42 12 26 10 30 17 31 52 3 64 3 65 20 65 13 0 14 3 5 14 -6 7
-8 27 -5 45 4 18 3 31 -2 30 -5 -2 -22 4 -37 11 -24 12 -32 12 -50 1 -18 -12
-22 -11 -34 5 -7 10 -13 22 -13 27 0 5 -9 -1 -19 -14 -15 -19 -20 -21 -24 -9
-3 8 -11 35 -18 60 l-14 45 -3 -45 c-3 -63 -11 -92 -22 -85 -6 3 -10 27 -10
52 0 26 -3 43 -7 40 -8 -8 -43 47 -53 85 -6 18 -3 33 7 47 8 12 12 21 9 21 -3
0 -12 -10 -20 -22z m-26 -445 c0 4 11 -4 25 -19 15 -16 25 -39 25 -57 0 -29 1
-30 14 -12 13 18 15 16 29 -30 13 -40 25 -40 17 0 -1 6 4 4 11 -2 21 -21 -14
-79 -66 -111 -43 -26 -57 -47 -69 -104 -6 -28 -17 -32 -49 -19 -17 6 -16 9 7
34 14 16 26 30 26 32 0 1 -21 -3 -47 -11 -25 -8 -58 -14 -73 -14 -15 0 -49
-10 -75 -21 -69 -31 -109 -41 -98 -26 5 7 36 46 69 87 33 41 75 97 93 123 18
26 41 53 52 60 10 6 19 21 19 33 0 25 71 76 82 60 4 -6 8 -7 8 -3z"/>
<path d="M10122 1038 c-7 -7 -12 -18 -12 -26 0 -7 -8 -12 -17 -11 -33 4 -53
-12 -53 -41 0 -16 -7 -30 -16 -34 -14 -5 -15 -1 -10 31 5 28 4 34 -4 21 -14
-22 -98 -9 -101 16 -1 6 -5 -27 -9 -74 -4 -47 -7 -86 -6 -88 6 -5 64 29 81 48
20 22 55 27 55 7 0 -7 -8 -17 -19 -24 -10 -6 -21 -25 -23 -42 -4 -26 -1 -32
25 -41 17 -5 33 -8 36 -4 6 5 7 10 9 52 1 12 7 22 13 22 8 0 9 -11 5 -32 -5
-31 -5 -32 9 -14 8 11 15 15 15 9 0 -5 -9 -18 -20 -28 -15 -13 -17 -21 -9 -26
16 -10 14 -58 -5 -104 -16 -38 -14 -57 4 -39 5 5 25 36 44 68 40 67 43 67 21
6 -20 -57 -12 -63 9 -8 34 83 47 336 19 331 -7 -2 -13 3 -13 11 0 21 -15 27
-28 14z"/>
<path d="M3368 405 c-9 -20 -18 -25 -49 -25 -25 0 -45 7 -56 19 -11 12 -24 17
-31 12 -9 -6 -7 -12 8 -26 11 -10 20 -27 20 -37 0 -10 7 -30 16 -44 9 -13 20
-39 24 -57 8 -30 9 -30 15 -9 10 31 44 30 38 -2 -3 -16 2 -30 15 -42 15 -12
19 -25 16 -43 -3 -15 1 -34 10 -46 15 -20 15 -19 16 5 0 14 -9 54 -20 89 -10
35 -17 68 -15 71 7 11 15 160 10 160 -3 0 -11 -11 -17 -25z"/>
</g>
</svg>
