<?xml version="1.0" standalone="no"?>
<!DOCTYPE svg PUBLIC "-//W3C//DTD SVG 20010904//EN"
 "http://www.w3.org/TR/2001/REC-SVG-20010904/DTD/svg10.dtd">
<svg version="1.0" xmlns="http://www.w3.org/2000/svg"
 width="500.000000pt" height="429.000000pt" viewBox="0 0 500.000000 429.000000"
 preserveAspectRatio="xMidYMid meet">
<metadata>
Created by potrace 1.16, written by Peter Selinger 2001-2019
</metadata>
<g transform="translate(0.000000,429.000000) scale(0.100000,-0.100000)"
fill="#000000" stroke="none">
<path d="M2979 3801 c-44 -14 -73 -32 -116 -74 -57 -54 -78 -117 -77 -227 1
-83 37 -276 55 -294 21 -23 21 11 -1 102 -30 124 -33 256 -7 324 31 81 124
148 205 148 50 0 134 -42 165 -84 38 -49 61 -128 54 -186 -18 -148 -147 -258
-363 -309 -166 -38 -317 -25 -450 39 -67 32 -88 37 -82 18 7 -21 134 -78 206
-93 221 -47 507 26 632 161 60 65 83 124 83 209 0 61 -4 79 -32 130 -63 115
-168 167 -272 136z"/>
<path d="M3835 3696 c-149 -48 -248 -133 -314 -268 -69 -143 -88 -299 -52
-439 28 -108 116 -251 136 -219 3 5 -7 27 -23 48 -93 118 -124 281 -87 457 18
83 70 194 119 251 75 88 207 152 329 161 55 4 77 10 77 19 0 22 -105 16 -185
-10z"/>
<path d="M3360 3325 c-96 -30 -173 -130 -185 -240 -26 -232 183 -525 457 -642
57 -24 26 8 -40 41 -133 67 -261 187 -335 316 -41 71 -70 193 -65 270 10 138
101 235 231 248 26 2 47 8 47 13 0 13 -58 10 -110 -6z"/>
<path d="M3520 3325 c0 -2 19 -13 43 -23 89 -40 136 -103 157 -212 23 -123
-24 -234 -172 -399 -55 -62 -94 -111 -86 -109 21 5 165 164 209 231 57 88 72
143 67 246 -5 97 -24 145 -80 200 -46 46 -138 90 -138 66z"/>
<path d="M4035 3211 c-98 -44 -157 -158 -170 -326 -3 -44 -11 -113 -17 -153
-6 -40 -8 -75 -5 -79 16 -16 39 80 48 200 13 163 34 224 100 289 60 59 111 75
185 59 137 -31 210 -158 169 -297 -35 -121 -83 -180 -193 -236 -63 -32 -70
-33 -181 -33 -110 0 -119 2 -186 33 -38 18 -87 45 -108 59 -39 27 -59 25 -41
-5 16 -24 149 -90 219 -107 160 -40 335 8 432 118 78 89 112 228 83 334 -17
58 -91 134 -147 151 -58 17 -142 14 -188 -7z"/>
<path d="M2860 3136 c0 -9 22 -85 49 -169 104 -320 149 -492 177 -677 16 -100
19 -217 24 -905 l5 -790 81 -190 81 -190 -39 -3 c-58 -5 -46 -22 15 -22 l54 0
63 153 c34 83 74 177 89 207 l26 55 5 775 5 775 25 60 c20 50 45 80 146 180
102 101 174 187 174 210 0 3 -6 5 -13 5 -8 0 -28 -22 -46 -50 -18 -27 -77 -91
-132 -142 -56 -53 -113 -115 -129 -143 -60 -106 -60 -103 -60 -889 0 -408 -4
-716 -9 -716 -5 0 -12 -10 -16 -22 -6 -22 -7 -21 -21 9 -12 28 -14 147 -15
725 0 381 -5 738 -10 793 -10 101 -32 200 -51 223 -11 13 -11 15 59 99 24 28
39 54 34 57 -5 4 -29 -19 -53 -49 -23 -30 -45 -55 -48 -55 -3 0 -20 28 -37 63
-49 98 -143 199 -230 247 -48 26 -71 21 -26 -6 117 -72 174 -130 235 -241 22
-40 44 -73 49 -73 6 0 -1 -15 -14 -32 -34 -46 -71 -131 -91 -209 -14 -57 -16
-151 -16 -781 0 -640 -2 -720 -16 -754 -16 -37 -17 -38 -27 -17 -5 13 -14 23
-19 23 -4 0 -8 336 -8 748 0 765 -2 826 -41 1017 -39 189 -196 706 -217 713
-6 2 -12 -4 -12 -12z m492 -827 c22 -83 22 -95 25 -850 l4 -766 -26 -32 c-34
-39 -75 -42 -110 -6 -23 22 -25 32 -25 107 -2 1474 -4 1406 41 1520 22 56 59
122 65 116 2 -2 13 -42 26 -89z m-132 -1649 c0 -5 10 -18 22 -30 33 -30 83
-26 118 9 l29 28 10 -28 c11 -32 35 -38 45 -13 4 9 9 15 11 12 3 -2 -8 -35
-24 -74 -16 -38 -43 -103 -60 -144 l-31 -75 -45 0 c-39 0 -46 3 -54 25 -5 14
-12 34 -17 44 -5 14 -4 17 4 12 8 -5 10 -2 6 8 -3 9 -10 14 -14 11 -4 -3 -19
23 -33 58 -61 149 -59 143 -43 123 19 -23 43 -15 52 19 6 24 24 36 24 15z"/>
<path d="M2723 2801 c-97 -33 -158 -96 -192 -198 -27 -81 -26 -126 3 -190 34
-72 96 -108 186 -108 94 1 155 38 197 120 38 72 23 217 -34 328 l-25 50 46 -6
c51 -7 64 7 15 17 -57 11 -143 6 -196 -13z m149 -64 c53 -122 63 -228 29 -302
-45 -97 -159 -141 -258 -100 -50 21 -72 42 -94 90 -72 157 76 374 256 374 40
0 40 0 67 -62z"/>
<path d="M695 1285 c-58 -21 -101 -72 -114 -136 -13 -64 -7 -323 9 -365 29
-77 129 -126 212 -104 24 7 56 24 71 38 30 28 67 92 67 115 0 7 15 17 33 22
26 8 32 16 35 40 4 52 -8 60 -108 64 -107 4 -140 -10 -140 -59 0 -31 22 -50
59 -50 26 0 26 -10 0 -44 -26 -33 -88 -37 -119 -6 -18 18 -20 33 -20 185 0
152 2 167 20 185 47 47 140 11 140 -55 0 -15 10 -31 25 -41 23 -15 27 -15 50
0 62 41 0 177 -97 213 -44 15 -75 15 -123 -2z"/>
<path d="M1070 1280 c-20 -20 -21 -30 -18 -301 3 -264 4 -281 22 -295 27 -19
42 -18 66 6 18 18 20 33 20 130 l0 110 31 0 c36 0 33 3 126 -134 37 -54 78
-105 90 -113 21 -14 26 -14 48 1 14 9 25 26 25 37 0 18 -49 95 -119 188 -25
33 -25 34 -6 47 109 76 125 201 36 286 -48 46 -92 58 -208 58 -80 0 -96 -3
-113 -20z m253 -109 c29 -28 28 -84 -1 -113 -17 -18 -37 -23 -92 -26 l-70 -4
0 87 0 88 71 -5 c54 -4 76 -10 92 -27z"/>
<path d="M1742 1283 c-11 -10 -38 -65 -60 -123 -22 -58 -68 -174 -101 -259
-68 -171 -74 -206 -37 -222 37 -17 57 1 91 83 l31 73 59 5 c33 3 80 4 106 2
l45 -4 29 -74 c29 -77 51 -100 85 -89 46 15 44 39 -10 178 -29 73 -77 195
-107 272 -48 124 -78 175 -103 175 -4 0 -17 -8 -28 -17z"/>
<path d="M2087 1283 c-15 -18 -17 -47 -17 -300 0 -258 1 -281 18 -296 24 -22
38 -21 62 3 18 18 20 33 20 129 l0 108 83 5 c95 6 138 27 177 85 20 29 25 49
25 98 0 49 -5 69 -25 99 -41 61 -87 79 -215 84 -99 4 -112 2 -128 -15z m249
-116 c13 -16 24 -39 24 -52 0 -13 -11 -36 -24 -52 -21 -24 -32 -28 -95 -31
l-71 -4 0 87 0 87 71 -4 c63 -3 74 -7 95 -31z"/>
<path d="M2528 1289 c-17 -9 -18 -35 -18 -305 l0 -294 26 -10 c29 -11 58 0 68
26 3 8 6 63 6 120 l0 104 100 0 100 0 0 -115 c0 -111 1 -115 25 -131 23 -15
27 -15 50 0 l25 16 0 285 0 285 -25 16 c-23 15 -27 15 -50 0 -24 -16 -25 -20
-25 -131 l0 -115 -100 0 -100 0 0 110 c0 97 -2 112 -20 130 -22 22 -37 24 -62
9z"/>
<path d="M3787 1285 c-45 -16 -82 -48 -105 -90 -21 -39 -30 -295 -13 -370 24
-106 122 -172 219 -146 112 31 186 178 110 220 -24 14 -28 14 -46 -2 -11 -10
-23 -32 -26 -49 -9 -47 -33 -68 -76 -68 -25 0 -43 7 -58 23 -21 22 -22 33 -22
185 0 149 2 164 20 182 47 47 140 11 140 -55 0 -15 10 -31 25 -41 23 -15 27
-15 50 0 65 43 -9 188 -110 215 -50 14 -61 13 -108 -4z"/>
<path d="M1513 540 c-27 -11 -43 -40 -43 -78 0 -40 28 -72 69 -81 42 -8 61
-33 45 -58 -6 -10 -21 -19 -33 -21 -17 -3 -25 4 -34 27 -15 42 -47 42 -47 1 0
-34 28 -67 65 -76 34 -8 87 24 96 59 15 56 -15 97 -82 111 -32 7 -43 30 -28
57 14 28 51 21 67 -13 26 -54 60 -26 36 30 -18 44 -63 61 -111 42z"/>
<path d="M1057 533 c-9 -8 -9 -236 -1 -257 5 -12 21 -16 66 -16 49 0 63 4 83
25 23 22 25 32 25 113 0 75 -3 93 -21 116 -18 23 -27 26 -83 26 -34 0 -66 -3
-69 -7z m125 -57 c4 -6 8 -40 8 -75 0 -74 -16 -101 -62 -101 l-28 0 0 93 c0
52 2 96 5 99 8 8 70 -4 77 -16z"/>
<path d="M1284 527 c-2 -7 -3 -69 -2 -138 l3 -124 65 0 c51 0 65 3 65 15 0 10
-13 16 -42 18 -43 3 -43 3 -43 42 0 35 3 39 28 42 16 2 27 9 27 18 0 9 -11 16
-27 18 -25 3 -28 7 -28 41 0 35 1 37 36 38 39 1 60 15 50 32 -10 16 -125 14
-132 -2z"/>
<path d="M1804 515 c-25 -25 -26 -30 -22 -121 3 -86 5 -98 27 -115 41 -33 116
-17 127 28 4 13 15 28 25 34 23 12 25 35 3 43 -26 10 -79 7 -91 -5 -14 -14 -6
-39 13 -39 20 0 17 -18 -5 -29 -13 -7 -23 -7 -35 2 -14 10 -16 27 -14 92 l3
80 30 0 c23 0 31 -5 33 -22 3 -23 35 -32 46 -14 9 14 -15 71 -34 81 -34 18
-79 11 -106 -15z"/>
<path d="M2014 527 c-2 -7 -3 -69 -2 -138 3 -116 4 -124 23 -124 18 0 21 8 25
69 l5 69 32 -72 c25 -56 36 -72 50 -69 16 3 18 16 18 138 0 128 -1 135 -20
135 -18 0 -21 -8 -25 -69 l-5 -69 -32 71 c-30 69 -56 91 -69 59z"/>
</g>
</svg>
