<?xml version="1.0" standalone="no"?>
<!DOCTYPE svg PUBLIC "-//W3C//DTD SVG 20010904//EN"
 "http://www.w3.org/TR/2001/REC-SVG-20010904/DTD/svg10.dtd">
<svg version="1.0" xmlns="http://www.w3.org/2000/svg"
 width="500.000000pt" height="400.000000pt" viewBox="0 0 500.000000 400.000000"
 preserveAspectRatio="xMidYMid meet">
<metadata>
Created by potrace 1.16, written by Peter Selinger 2001-2019
</metadata>
<g transform="translate(0.000000,400.000000) scale(0.100000,-0.100000)"
fill="#000000" stroke="none">
<path d="M2761 2601 c-18 -14 -21 -20 -10 -25 8 -3 4 -4 -9 -2 -14 3 -20 0
-15 -7 4 -6 0 -8 -9 -5 -8 4 -21 2 -29 -3 -9 -6 -10 -9 -2 -9 21 0 3 -28 -29
-43 l-30 -14 42 1 c22 0 36 2 30 4 -5 2 -10 8 -10 14 0 6 7 7 16 4 12 -5 14
-1 9 17 -6 19 -4 18 12 -6 11 -15 23 -24 26 -20 10 10 8 25 -2 19 -5 -3 -11 3
-14 14 -3 12 -1 18 5 14 6 -4 14 -1 18 7 12 18 41 -7 33 -29 -3 -12 -2 -13 4
-4 7 10 14 8 29 -9 10 -11 27 -25 36 -30 14 -8 16 -6 11 8 -8 24 1 15 31 -30
14 -20 21 -37 15 -37 -6 0 -7 -4 -4 -10 3 -5 -1 -10 -9 -10 -19 0 -21 17 -4
22 19 7 -1 28 -43 45 -21 8 -39 19 -39 24 0 5 -4 9 -10 9 -20 0 -9 -17 23 -33
l32 -17 -32 3 c-30 3 -32 2 -18 -13 8 -9 12 -20 8 -24 -4 -4 0 -4 10 0 9 3 14
11 10 18 -4 6 1 5 10 -3 15 -12 17 -11 17 3 0 10 5 14 10 11 6 -3 7 -17 4 -31
-5 -20 -2 -24 15 -24 17 0 20 -3 13 -17 -5 -10 -8 -24 -6 -31 1 -7 0 -8 -3 -2
-8 17 -23 11 -23 -10 0 -13 7 -20 20 -20 18 0 25 10 21 32 0 4 6 5 13 2 13 -5
33 30 28 49 -1 5 16 -6 38 -24 29 -23 37 -35 28 -41 -7 -4 -9 -8 -4 -8 5 0 -6
-10 -25 -23 -19 -12 -35 -33 -37 -45 -2 -12 -8 -22 -13 -22 -5 0 -9 -5 -9 -10
0 -12 30 4 83 43 20 16 37 33 37 38 0 6 -4 8 -8 5 -5 -3 -9 1 -9 9 0 20 9 19
30 -5 16 -19 14 -24 -6 -21 -5 1 -6 -9 -3 -21 3 -13 3 -17 0 -10 -10 21 -24
13 -24 -14 0 -14 4 -23 9 -19 5 3 13 0 17 -6 4 -8 3 -9 -4 -5 -7 4 -12 2 -12
-4 0 -6 -5 -8 -11 -4 -7 4 -7 -2 1 -17 l13 -23 18 35 c10 19 16 42 13 52 -3 9
-1 17 5 17 6 0 11 -6 11 -12 0 -9 4 -8 10 2 5 8 10 20 10 25 0 6 -5 3 -10 -5
-8 -12 -10 -12 -10 5 0 13 -27 42 -76 80 -41 33 -93 82 -115 109 -21 27 -39
44 -39 37 0 -6 -5 -11 -11 -11 -6 0 -8 7 -5 16 5 14 -49 94 -64 94 -3 0 -16
-9 -29 -19z"/>
<path d="M1974 1582 c-81 -167 -96 -202 -89 -202 4 0 345 161 354 167 2 1 -40
45 -93 97 l-97 94 -75 -156z"/>
</g>
</svg>
